<?xml version="1.0" encoding="UTF-8" standalone="no"?>
<!-- Created with Inkscape (http://www.inkscape.org/) -->

<svg
   width="210mm"
   height="297mm"
   viewBox="0 0 210 297"
   version="1.1"
   id="svg1"
   inkscape:version="1.4 (e7c3feb, 2024-10-09)"
   sodipodi:docname="Keypad.svg"
   inkscape:export-filename="../Keypad.png"
   inkscape:export-xdpi="96"
   inkscape:export-ydpi="96"
   xmlns:inkscape="http://www.inkscape.org/namespaces/inkscape"
   xmlns:sodipodi="http://sodipodi.sourceforge.net/DTD/sodipodi-0.dtd"
   xmlns="http://www.w3.org/2000/svg"
   xmlns:svg="http://www.w3.org/2000/svg">
  <sodipodi:namedview
     id="namedview1"
     pagecolor="#ffffff"
     bordercolor="#666666"
     borderopacity="1.0"
     inkscape:showpageshadow="2"
     inkscape:pageopacity="0.0"
     inkscape:pagecheckerboard="0"
     inkscape:deskcolor="#d1d1d1"
     inkscape:document-units="mm"
     inkscape:zoom="1.0066252"
     inkscape:cx="233.45332"
     inkscape:cy="381.96937"
     inkscape:window-width="1920"
     inkscape:window-height="1013"
     inkscape:window-x="0"
     inkscape:window-y="30"
     inkscape:window-maximized="1"
     inkscape:current-layer="layer1"
     showguides="true"
     inkscape:export-bgcolor="#ffffffff" />
  <defs
     id="defs1" />
  <g
     inkscape:label="Livello 1"
     inkscape:groupmode="layer"
     id="layer1">
    <rect
       style="fill:#f9f9f9;fill-opacity:1;stroke:none;stroke-width:0.892536;stroke-linecap:round;stroke-dasharray:none"
       id="rect5548"
       width="91.643867"
       height="114.90701"
       x="49.991837"
       y="20.138268" />
    <g
       id="g5548"
       transform="translate(30.108886,-19.329161)">
      <g
         id="g5547">
        <rect
           style="fill:none;stroke:#000000;stroke-width:0.753142;stroke-linecap:round"
           id="use153"
           width="19.246859"
           height="19.246859"
           x="24.881453"
           y="45.69746"
           ry="4.3303218"
           inkscape:tile-x0="24.504881"
           inkscape:tile-y0="45.3209" />
        <rect
           style="fill:none;stroke:#000000;stroke-width:0.753142;stroke-linecap:round"
           id="use154"
           width="19.246859"
           height="19.246859"
           x="24.881453"
           y="66.497467"
           ry="4.3303218"
           inkscape:tile-x0="24.504881"
           inkscape:tile-y0="45.3209" />
        <rect
           style="fill:none;stroke:#000000;stroke-width:0.753142;stroke-linecap:round"
           id="use155"
           width="19.246859"
           height="19.246859"
           x="24.881453"
           y="87.29747"
           ry="4.3303218"
           inkscape:tile-x0="24.504881"
           inkscape:tile-y0="45.3209" />
        <rect
           style="fill:none;stroke:#000000;stroke-width:0.753142;stroke-linecap:round"
           id="use156"
           width="19.246859"
           height="19.246859"
           x="24.881453"
           y="108.09747"
           ry="4.3303218"
           inkscape:tile-x0="24.504881"
           inkscape:tile-y0="45.3209" />
        <rect
           style="fill:none;stroke:#000000;stroke-width:0.753142;stroke-linecap:round"
           id="use158"
           width="19.246859"
           height="19.246859"
           x="45.681454"
           y="45.69746"
           ry="4.3303218"
           inkscape:tile-x0="24.504881"
           inkscape:tile-y0="45.3209" />
        <rect
           style="fill:none;stroke:#000000;stroke-width:0.753142;stroke-linecap:round"
           id="use159"
           width="19.246859"
           height="19.246859"
           x="45.681454"
           y="66.497467"
           ry="4.3303218"
           inkscape:tile-x0="24.504881"
           inkscape:tile-y0="45.3209" />
        <rect
           style="fill:none;stroke:#000000;stroke-width:0.753142;stroke-linecap:round"
           id="use160"
           width="19.246859"
           height="19.246859"
           x="45.681454"
           y="87.29747"
           ry="4.3303218"
           inkscape:tile-x0="24.504881"
           inkscape:tile-y0="45.3209" />
        <rect
           style="fill:none;stroke:#000000;stroke-width:0.753142;stroke-linecap:round"
           id="use161"
           width="19.246859"
           height="19.246859"
           x="45.681454"
           y="108.09747"
           ry="4.3303218"
           inkscape:tile-x0="24.504881"
           inkscape:tile-y0="45.3209" />
        <rect
           style="fill:none;stroke:#000000;stroke-width:0.753142;stroke-linecap:round"
           id="use163"
           width="19.246859"
           height="19.246859"
           x="66.481453"
           y="45.69746"
           ry="4.3303218"
           inkscape:tile-x0="24.504881"
           inkscape:tile-y0="45.3209" />
        <rect
           style="fill:none;stroke:#000000;stroke-width:0.753142;stroke-linecap:round"
           id="use164"
           width="19.246859"
           height="19.246859"
           x="66.481453"
           y="66.497467"
           ry="4.3303218"
           inkscape:tile-x0="24.504881"
           inkscape:tile-y0="45.3209" />
        <path
           id="use165"
           style="fill:none;stroke:#000000;stroke-width:0.753142;stroke-linecap:round"
           d="M 70.811775,87.29747 H 81.39799 c 2.398998,0 4.330322,1.931324 4.330322,4.330322 v 10.586218 c 0,2.399 -1.931324,4.33032 -4.330322,4.33032 H 70.811775 c -2.398999,0 -4.330322,-1.93132 -4.330322,-4.33032 V 91.627792 c 0,-2.398998 1.931323,-4.330322 4.330322,-4.330322 z"
           sodipodi:nodetypes="sssssssss" />
        <rect
           style="fill:none;stroke:#000000;stroke-width:0.753142;stroke-linecap:round"
           id="use166"
           width="19.246859"
           height="19.246859"
           x="66.481453"
           y="108.09747"
           ry="4.3303218"
           inkscape:tile-x0="24.504881"
           inkscape:tile-y0="45.3209" />
        <rect
           style="fill:none;stroke:#000000;stroke-width:0.753142;stroke-linecap:round"
           id="use167"
           width="19.246859"
           height="19.246859"
           x="66.481453"
           y="128.89755"
           ry="4.3303218"
           inkscape:tile-x0="24.504881"
           inkscape:tile-y0="45.3209" />
        <rect
           style="fill:none;stroke:#000000;stroke-width:0.753142;stroke-linecap:round"
           id="use168"
           width="19.246859"
           height="19.246859"
           x="87.281456"
           y="45.69746"
           ry="4.3303218"
           inkscape:tile-x0="24.504881"
           inkscape:tile-y0="45.3209" />
        <path
           id="use169"
           style="fill:none;stroke:#000000;stroke-width:0.753142;stroke-linecap:round"
           d="m 91.611778,66.497467 h 10.586212 c 2.399,0 4.33032,1.931324 4.33032,4.330322 v 31.386221 c 0,2.399 -1.93132,4.33032 -4.33032,4.33032 H 91.611778 c -2.398998,0 -4.330322,-1.93132 -4.330322,-4.33032 V 70.827789 c 0,-2.398998 1.931324,-4.330322 4.330322,-4.330322 z"
           sodipodi:nodetypes="sssssssss" />
        <path
           id="path172"
           style="fill:none;stroke:#000000;stroke-width:0.753142;stroke-linecap:round"
           d="m 91.611778,108.09747 h 10.586212 c 2.399,0 4.33032,1.93133 4.33032,4.33033 v 31.38622 c 0,2.399 -1.93132,4.33032 -4.33032,4.33032 H 91.611778 c -2.398998,0 -4.330322,-1.93132 -4.330322,-4.33032 V 112.4278 c 0,-2.399 1.931324,-4.33033 4.330322,-4.33033 z"
           sodipodi:nodetypes="sssssssss" />
        <path
           id="path173"
           style="fill:none;stroke:#000000;stroke-width:0.753142;stroke-linecap:round"
           d="m 64.928325,133.22787 v 10.58621 c 0,2.399 -1.93133,4.33032 -4.33033,4.33032 H 29.211773 c -2.399,0 -4.33032,-1.93132 -4.33032,-4.33032 v -10.58621 c 0,-2.399 1.93132,-4.33032 4.33032,-4.33032 h 31.386222 c 2.399,0 4.33033,1.93132 4.33033,4.33032 z"
           sodipodi:nodetypes="sssssssss" />
      </g>
      <g
         id="g5546">
        <g
           id="g195">
          <g
             id="g188"
             transform="matrix(0.8,0,0,0.8,47.230978,21.899356)">
            <path
               style="fill:#000000;stroke:none;stroke-width:0.204966px;stroke-linecap:butt;stroke-linejoin:miter;stroke-opacity:1"
               d="m 29.015295,112.09936 8.333333,5 -8.333333,5 z"
               id="path187"
               sodipodi:nodetypes="cccc" />
            <path
               style="fill:#000000;stroke:none;stroke-width:0.204966px;stroke-linecap:butt;stroke-linejoin:miter;stroke-opacity:1"
               d="m 34.836132,112.09936 8.333336,5 -8.333336,5 z"
               id="path188"
               sodipodi:nodetypes="cccc" />
          </g>
          <text
             xml:space="preserve"
             style="font-style:normal;font-variant:normal;font-weight:normal;font-stretch:normal;font-size:4.23333px;line-height:1.2;font-family:Lato;-inkscape-font-specification:Lato;text-align:center;letter-spacing:0px;word-spacing:0px;text-anchor:middle;stroke-width:0.264583"
             x="76.103821"
             y="123.82909"
             id="text188"><tspan
               sodipodi:role="line"
               id="tspan188"
               style="font-style:normal;font-variant:normal;font-weight:normal;font-stretch:normal;font-family:Lato;-inkscape-font-specification:Lato;stroke-width:0.264583"
               x="76.103821"
               y="123.82909">+5 s.</tspan></text>
        </g>
        <g
           id="g180"
           transform="matrix(0.8,0,0,0.8,9.404311,27.704191)">
          <path
             style="fill:#000000;stroke:none;stroke-width:0.204966px;stroke-linecap:butt;stroke-linejoin:miter;stroke-opacity:1"
             d="m 37.274032,133.52098 8.333333,5 -8.333333,5 z"
             id="path177"
             sodipodi:nodetypes="cccc" />
          <g
             id="g179"
             transform="translate(-1.0583333)">
            <rect
               style="fill:#000000;stroke:none;stroke-width:0.892117;stroke-linecap:round"
               id="rect177"
               width="1.6666666"
               height="9.999999"
               x="47.341301"
               y="133.52098"
               ry="0" />
            <rect
               style="fill:#000000;stroke:none;stroke-width:0.892117;stroke-linecap:round"
               id="rect178"
               width="1.6666666"
               height="9.999999"
               x="50.86908"
               y="133.52098"
               ry="0" />
          </g>
        </g>
        <rect
           style="fill:#000000;stroke:none;stroke-width:0.675194;stroke-linecap:round"
           id="rect179"
           width="8"
           height="8"
           x="72.104881"
           y="134.52098" />
        <g
           id="g183"
           transform="translate(0,-0.55455724)">
          <g
             id="g182"
             transform="matrix(-0.8,0,0,0.8,63.378787,22.453913)">
            <path
               style="fill:#000000;stroke:none;stroke-width:0.204966px;stroke-linecap:butt;stroke-linejoin:miter;stroke-opacity:1"
               d="m 29.015295,112.09936 8.333333,5 -8.333333,5 z"
               id="path180"
               sodipodi:nodetypes="cccc" />
            <path
               style="fill:#000000;stroke:none;stroke-width:0.204966px;stroke-linecap:butt;stroke-linejoin:miter;stroke-opacity:1"
               d="m 34.836132,112.09936 8.333336,5 -8.333336,5 z"
               id="path182"
               sodipodi:nodetypes="cccc" />
          </g>
          <text
             xml:space="preserve"
             style="font-style:normal;font-variant:normal;font-weight:normal;font-stretch:normal;font-size:4.23333px;line-height:1.2;font-family:Lato;-inkscape-font-specification:Lato;text-align:center;letter-spacing:0px;word-spacing:0px;text-anchor:middle;stroke-width:0.264583"
             x="34.503819"
             y="124.38365"
             id="text182"><tspan
               sodipodi:role="line"
               id="tspan182"
               style="font-style:normal;font-variant:normal;font-weight:normal;font-stretch:normal;font-family:Lato;-inkscape-font-specification:Lato;stroke-width:0.264583"
               x="34.503819"
               y="124.38365">-5 s.</tspan></text>
        </g>
        <g
           id="g185"
           transform="translate(-0.05503194)">
          <g
             id="g184"
             transform="matrix(-0.8,0,0,0.8,63.433819,1.099353)">
            <path
               style="fill:#000000;stroke:none;stroke-width:0.204966px;stroke-linecap:butt;stroke-linejoin:miter;stroke-opacity:1"
               d="m 29.015295,112.09936 8.333333,5 -8.333333,5 z"
               id="path183"
               sodipodi:nodetypes="cccc" />
            <path
               style="fill:#000000;stroke:none;stroke-width:0.204966px;stroke-linecap:butt;stroke-linejoin:miter;stroke-opacity:1"
               d="m 34.836132,112.09936 8.333336,5 -8.333336,5 z"
               id="path184"
               sodipodi:nodetypes="cccc" />
          </g>
          <text
             xml:space="preserve"
             style="font-style:normal;font-variant:normal;font-weight:normal;font-stretch:normal;font-size:4.23333px;line-height:1.2;font-family:Lato;-inkscape-font-specification:Lato;text-align:center;letter-spacing:0px;word-spacing:0px;text-anchor:middle;stroke-width:0.264583"
             x="34.503819"
             y="103.02909"
             id="text184"><tspan
               sodipodi:role="line"
               id="tspan184"
               style="font-style:normal;font-variant:normal;font-weight:normal;font-stretch:normal;font-family:Lato;-inkscape-font-specification:Lato;stroke-width:0.264583"
               x="34.503819"
               y="103.02909">-10 s.</tspan></text>
        </g>
        <g
           id="g187">
          <path
             style="fill:#000000;stroke:none;stroke-width:0.163973px;stroke-linecap:butt;stroke-linejoin:miter;stroke-opacity:1"
             d="m 40.166551,69.978838 -6.666666,4 6.666666,4 z"
             id="path185"
             sodipodi:nodetypes="cccc" />
          <path
             style="fill:#000000;stroke:none;stroke-width:0.163973px;stroke-linecap:butt;stroke-linejoin:miter;stroke-opacity:1"
             d="m 35.509881,69.978838 -6.666668,4 6.666668,4 z"
             id="path186"
             sodipodi:nodetypes="cccc" />
          <text
             xml:space="preserve"
             style="font-style:normal;font-variant:normal;font-weight:normal;font-stretch:normal;font-size:4.23333px;line-height:1.2;font-family:Lato;-inkscape-font-specification:Lato;text-align:center;letter-spacing:0px;word-spacing:0px;text-anchor:middle;stroke-width:0.264583"
             x="34.448788"
             y="82.229088"
             id="text186"><tspan
               sodipodi:role="line"
               id="tspan186"
               style="font-style:normal;font-variant:normal;font-weight:normal;font-stretch:normal;font-family:Lato;-inkscape-font-specification:Lato;stroke-width:0.264583"
               x="34.448788"
               y="82.229088">-15 s.</tspan></text>
        </g>
        <g
           id="g194">
          <g
             id="g190"
             transform="matrix(0.8,0,0,0.8,47.23098,1.099353)">
            <path
               style="fill:#000000;stroke:none;stroke-width:0.204966px;stroke-linecap:butt;stroke-linejoin:miter;stroke-opacity:1"
               d="m 29.015295,112.09936 8.333333,5 -8.333333,5 z"
               id="path189"
               sodipodi:nodetypes="cccc" />
            <path
               style="fill:#000000;stroke:none;stroke-width:0.204966px;stroke-linecap:butt;stroke-linejoin:miter;stroke-opacity:1"
               d="m 34.836132,112.09936 8.333336,5 -8.333336,5 z"
               id="path190"
               sodipodi:nodetypes="cccc" />
          </g>
          <text
             xml:space="preserve"
             style="font-style:normal;font-variant:normal;font-weight:normal;font-stretch:normal;font-size:4.23333px;line-height:1.2;font-family:Lato;-inkscape-font-specification:Lato;text-align:center;letter-spacing:0px;word-spacing:0px;text-anchor:middle;stroke-width:0.264583"
             x="76.04879"
             y="103.02909"
             id="text190"><tspan
               sodipodi:role="line"
               id="tspan190"
               style="font-style:normal;font-variant:normal;font-weight:normal;font-stretch:normal;font-family:Lato;-inkscape-font-specification:Lato;stroke-width:0.264583"
               x="76.04879"
               y="103.02909">+10 s.</tspan></text>
        </g>
        <g
           id="g193">
          <g
             id="g192"
             transform="matrix(-1,0,0,1,152.20977,0)">
            <path
               style="fill:#000000;stroke:none;stroke-width:0.163973px;stroke-linecap:butt;stroke-linejoin:miter;stroke-opacity:1"
               d="m 81.766551,69.978838 -6.666666,4 6.666666,4 z"
               id="path191"
               sodipodi:nodetypes="cccc" />
            <path
               style="fill:#000000;stroke:none;stroke-width:0.163973px;stroke-linecap:butt;stroke-linejoin:miter;stroke-opacity:1"
               d="m 77.109881,69.978838 -6.666668,4 6.666668,4 z"
               id="path192"
               sodipodi:nodetypes="cccc" />
          </g>
          <text
             xml:space="preserve"
             style="font-style:normal;font-variant:normal;font-weight:normal;font-stretch:normal;font-size:4.23333px;line-height:1.2;font-family:Lato;-inkscape-font-specification:Lato;text-align:center;letter-spacing:0px;word-spacing:0px;text-anchor:middle;stroke-width:0.264583"
             x="76.04879"
             y="82.229088"
             id="text192"><tspan
               sodipodi:role="line"
               id="tspan192"
               style="font-style:normal;font-variant:normal;font-weight:normal;font-stretch:normal;font-family:Lato;-inkscape-font-specification:Lato;stroke-width:0.264583"
               x="76.04879"
               y="82.229088">+15 s.</tspan></text>
        </g>
        <g
           id="g5539"
           transform="translate(90.385013,17.384615)">
          <path
             id="path5477"
             style="fill:#000000;fill-opacity:1;stroke:none;stroke-width:0.506391;stroke-linecap:round"
             d="m -35.442404,52.652361 a 4.9999487,4.9999487 0 0 0 -2.40502,0.834058 l 1.34565,1.530139 a 2.9874063,2.9874063 0 0 1 1.27745,-0.351917 l -0.12506,-2.01228 a 4.9999487,4.9999487 0 0 0 -0.092,0 z m 0.30696,0 0.12402,2.001945 a 2.9874063,2.9874063 0 0 1 1.06299,0.223759 l 0.99218,-1.749247 a 4.9999487,4.9999487 0 0 0 -2.17919,-0.476457 z m 2.37401,0.56534 -0.99167,1.748731 a 2.9874063,2.9874063 0 0 1 0.80047,0.581359 l 1.74356,-1.066084 a 4.9999487,4.9999487 0 0 0 -0.34003,-0.377755 4.9999487,4.9999487 0 0 0 -1.21233,-0.886251 z m -5.26789,0.385506 a 4.9999487,4.9999487 0 0 0 -0.5917,0.500745 4.9999487,4.9999487 0 0 0 -1.36787,2.59364 l 2.06396,0.04393 a 2.9874063,2.9874063 0 0 1 1.23713,-1.612821 z m 6.95306,1.047482 -1.73064,1.057816 a 2.9874063,2.9874063 0 0 1 0.35502,0.520382 l 2.00452,-0.454753 a 4.9999487,4.9999487 0 0 0 -0.6289,-1.123445 z m 0.70539,1.324983 -1.98438,0.450102 a 2.9874063,2.9874063 0 0 1 0.19792,0.623218 l 2.05466,0.178283 a 4.9999487,4.9999487 0 0 0 -0.2682,-1.251603 z m -9.64851,0.934827 a 4.9999487,4.9999487 0 0 0 1.39836,4.264339 4.9999487,4.9999487 0 0 0 0.009,0.0078 l 1.42162,-1.440223 a 2.9874063,2.9874063 0 0 1 -0.8816,-2.102714 2.9874063,2.9874063 0 0 1 0.0904,-0.685746 z m 7.89823,0.356051 a 2.9874063,2.9874063 0 0 1 0.0238,0.373103 2.9874063,2.9874063 0 0 1 -0.0212,0.268718 l 1.92805,0.749825 a 4.9999487,4.9999487 0 0 0 0.10077,-1.21543 z m -0.0186,0.862996 a 2.9874063,2.9874063 0 0 1 -0.15244,0.54932 l 1.68206,1.189075 a 4.9999487,4.9999487 0 0 0 0.37052,-0.999422 z m -0.23616,0.751375 a 2.9874063,2.9874063 0 0 1 -0.16743,0.309542 l 1.45572,1.452625 a 4.9999487,4.9999487 0 0 0 0.37776,-0.584461 z m -0.28267,0.496611 a 2.9874063,2.9874063 0 0 1 -0.31316,0.371553 l 1.41335,1.433505 a 4.9999487,4.9999487 0 0 0 0.009,-0.0078 4.9999487,4.9999487 0 0 0 0.32815,-0.362768 z" />
          <text
             xml:space="preserve"
             style="font-style:normal;font-variant:normal;font-weight:normal;font-stretch:normal;font-size:4.23333px;line-height:1.2;font-family:Lato;-inkscape-font-specification:Lato;text-align:center;letter-spacing:0px;word-spacing:0px;text-anchor:middle;stroke-width:0.264583"
             x="-35.093891"
             y="64.784454"
             id="text5538"><tspan
               sodipodi:role="line"
               id="tspan5538"
               style="font-style:normal;font-variant:normal;font-weight:normal;font-stretch:normal;font-family:Lato;-inkscape-font-specification:Lato;stroke-width:0.264583"
               x="-35.093891"
               y="64.784454">+5%</tspan></text>
        </g>
        <g
           id="g5540"
           transform="translate(90.385013,58.984621)">
          <path
             id="path5539"
             style="fill:#000000;fill-opacity:1;stroke:none;stroke-width:0.506391;stroke-linecap:round"
             d="m -35.442404,52.652361 a 4.9999487,4.9999487 0 0 0 -2.40502,0.834058 l 1.34565,1.530139 a 2.9874063,2.9874063 0 0 1 1.27745,-0.351917 l -0.12506,-2.01228 a 4.9999487,4.9999487 0 0 0 -0.092,0 z m 0.30696,0 0.12402,2.001945 a 2.9874063,2.9874063 0 0 1 1.06299,0.223759 l 0.99218,-1.749247 a 4.9999487,4.9999487 0 0 0 -2.17919,-0.476457 z m 2.37401,0.56534 -0.99167,1.748731 a 2.9874063,2.9874063 0 0 1 0.80047,0.581359 l 1.74356,-1.066084 a 4.9999487,4.9999487 0 0 0 -0.34003,-0.377755 4.9999487,4.9999487 0 0 0 -1.21233,-0.886251 z m -5.26789,0.385506 a 4.9999487,4.9999487 0 0 0 -0.5917,0.500745 4.9999487,4.9999487 0 0 0 -1.36787,2.59364 l 2.06396,0.04393 a 2.9874063,2.9874063 0 0 1 1.23713,-1.612821 z m 6.95306,1.047482 -1.73064,1.057816 a 2.9874063,2.9874063 0 0 1 0.35502,0.520382 l 2.00452,-0.454753 a 4.9999487,4.9999487 0 0 0 -0.6289,-1.123445 z m 0.70539,1.324983 -1.98438,0.450102 a 2.9874063,2.9874063 0 0 1 0.19792,0.623218 l 2.05466,0.178283 a 4.9999487,4.9999487 0 0 0 -0.2682,-1.251603 z m -9.64851,0.934827 a 4.9999487,4.9999487 0 0 0 1.39836,4.264339 4.9999487,4.9999487 0 0 0 0.009,0.0078 l 1.42162,-1.440223 a 2.9874063,2.9874063 0 0 1 -0.8816,-2.102714 2.9874063,2.9874063 0 0 1 0.0904,-0.685746 z m 7.89823,0.356051 a 2.9874063,2.9874063 0 0 1 0.0238,0.373103 2.9874063,2.9874063 0 0 1 -0.0212,0.268718 l 1.92805,0.749825 a 4.9999487,4.9999487 0 0 0 0.10077,-1.21543 z m -0.0186,0.862996 a 2.9874063,2.9874063 0 0 1 -0.15244,0.54932 l 1.68206,1.189075 a 4.9999487,4.9999487 0 0 0 0.37052,-0.999422 z m -0.23616,0.751375 a 2.9874063,2.9874063 0 0 1 -0.16743,0.309542 l 1.45572,1.452625 a 4.9999487,4.9999487 0 0 0 0.37776,-0.584461 z m -0.28267,0.496611 a 2.9874063,2.9874063 0 0 1 -0.31316,0.371553 l 1.41335,1.433505 a 4.9999487,4.9999487 0 0 0 0.009,-0.0078 4.9999487,4.9999487 0 0 0 0.32815,-0.362768 z" />
          <text
             xml:space="preserve"
             style="font-style:normal;font-variant:normal;font-weight:normal;font-stretch:normal;font-size:4.23333px;line-height:1.2;font-family:Lato;-inkscape-font-specification:Lato;text-align:center;letter-spacing:0px;word-spacing:0px;text-anchor:middle;stroke-width:0.264583"
             x="-35.093891"
             y="64.784454"
             id="text5539"><tspan
               sodipodi:role="line"
               id="tspan5539"
               style="font-style:normal;font-variant:normal;font-weight:normal;font-stretch:normal;font-family:Lato;-inkscape-font-specification:Lato;stroke-width:0.264583"
               x="-35.093891"
               y="64.784454">-5%</tspan></text>
        </g>
        <g
           id="g5541"
           transform="translate(90.385013,38.184618)">
          <path
             id="path5540"
             style="fill:#000000;fill-opacity:1;stroke:none;stroke-width:0.506391;stroke-linecap:round"
             d="m -35.442404,52.652361 a 4.9999487,4.9999487 0 0 0 -2.40502,0.834058 l 1.34565,1.530139 a 2.9874063,2.9874063 0 0 1 1.27745,-0.351917 l -0.12506,-2.01228 a 4.9999487,4.9999487 0 0 0 -0.092,0 z m 0.30696,0 0.12402,2.001945 a 2.9874063,2.9874063 0 0 1 1.06299,0.223759 l 0.99218,-1.749247 a 4.9999487,4.9999487 0 0 0 -2.17919,-0.476457 z m 2.37401,0.56534 -0.99167,1.748731 a 2.9874063,2.9874063 0 0 1 0.80047,0.581359 l 1.74356,-1.066084 a 4.9999487,4.9999487 0 0 0 -0.34003,-0.377755 4.9999487,4.9999487 0 0 0 -1.21233,-0.886251 z m -5.26789,0.385506 a 4.9999487,4.9999487 0 0 0 -0.5917,0.500745 4.9999487,4.9999487 0 0 0 -1.36787,2.59364 l 2.06396,0.04393 a 2.9874063,2.9874063 0 0 1 1.23713,-1.612821 z m 6.95306,1.047482 -1.73064,1.057816 a 2.9874063,2.9874063 0 0 1 0.35502,0.520382 l 2.00452,-0.454753 a 4.9999487,4.9999487 0 0 0 -0.6289,-1.123445 z m 0.70539,1.324983 -1.98438,0.450102 a 2.9874063,2.9874063 0 0 1 0.19792,0.623218 l 2.05466,0.178283 a 4.9999487,4.9999487 0 0 0 -0.2682,-1.251603 z m -9.64851,0.934827 a 4.9999487,4.9999487 0 0 0 1.39836,4.264339 4.9999487,4.9999487 0 0 0 0.009,0.0078 l 1.42162,-1.440223 a 2.9874063,2.9874063 0 0 1 -0.8816,-2.102714 2.9874063,2.9874063 0 0 1 0.0904,-0.685746 z m 7.89823,0.356051 a 2.9874063,2.9874063 0 0 1 0.0238,0.373103 2.9874063,2.9874063 0 0 1 -0.0212,0.268718 l 1.92805,0.749825 a 4.9999487,4.9999487 0 0 0 0.10077,-1.21543 z m -0.0186,0.862996 a 2.9874063,2.9874063 0 0 1 -0.15244,0.54932 l 1.68206,1.189075 a 4.9999487,4.9999487 0 0 0 0.37052,-0.999422 z m -0.23616,0.751375 a 2.9874063,2.9874063 0 0 1 -0.16743,0.309542 l 1.45572,1.452625 a 4.9999487,4.9999487 0 0 0 0.37776,-0.584461 z m -0.28267,0.496611 a 2.9874063,2.9874063 0 0 1 -0.31316,0.371553 l 1.41335,1.433505 a 4.9999487,4.9999487 0 0 0 0.009,-0.0078 4.9999487,4.9999487 0 0 0 0.32815,-0.362768 z" />
          <text
             xml:space="preserve"
             style="font-style:normal;font-variant:normal;font-weight:normal;font-stretch:normal;font-size:4.23333px;line-height:1.2;font-family:Lato;-inkscape-font-specification:Lato;text-align:center;letter-spacing:0px;word-spacing:0px;text-anchor:middle;stroke-width:0.264583"
             x="-35.093891"
             y="64.784454"
             id="text5540"><tspan
               sodipodi:role="line"
               id="tspan5540"
               style="font-style:normal;font-variant:normal;font-weight:normal;font-stretch:normal;font-family:Lato;-inkscape-font-specification:Lato;stroke-width:0.264583"
               x="-35.093891"
               y="64.784454">100%</tspan></text>
        </g>
        <g
           id="g5544"
           transform="translate(-1.1590685,-31.474116)">
          <text
             xml:space="preserve"
             style="font-style:normal;font-variant:normal;font-weight:normal;font-stretch:normal;font-size:14.5765px;line-height:1.2;font-family:Musica;-inkscape-font-specification:Musica;text-align:center;letter-spacing:0px;word-spacing:0px;text-anchor:middle;stroke-width:0.911034"
             x="103.74722"
             y="89.856552"
             id="text5541"><tspan
               sodipodi:role="line"
               id="tspan5541"
               style="font-style:normal;font-variant:normal;font-weight:normal;font-stretch:normal;font-family:Musica;-inkscape-font-specification:Musica;stroke-width:0.911034"
               x="103.74722"
               y="89.856552">𝄢</tspan></text>
          <text
             xml:space="preserve"
             style="font-style:normal;font-variant:normal;font-weight:normal;font-stretch:normal;font-size:4.23333px;line-height:1.2;font-family:Lato;-inkscape-font-specification:Lato;text-align:center;letter-spacing:0px;word-spacing:0px;text-anchor:middle;stroke-width:0.264583"
             x="98.049133"
             y="92.767151"
             id="text5543"><tspan
               sodipodi:role="line"
               id="tspan5543"
               style="font-style:normal;font-variant:normal;font-weight:normal;font-stretch:normal;font-family:Lato;-inkscape-font-specification:Lato;stroke-width:0.264583"
               x="98.049133"
               y="92.767151">-1 s/t.</tspan></text>
        </g>
        <g
           id="g5545"
           transform="translate(0.17119209,6.5035666)">
          <text
             xml:space="preserve"
             style="font-style:normal;font-variant:normal;font-weight:normal;font-stretch:normal;font-size:16.1303px;line-height:1.2;font-family:Musica;-inkscape-font-specification:Musica;text-align:center;letter-spacing:0px;word-spacing:0px;text-anchor:middle;stroke-width:1.00814"
             x="104.46806"
             y="81.94207"
             id="text5542"><tspan
               sodipodi:role="line"
               id="tspan5542"
               style="font-style:normal;font-variant:normal;font-weight:normal;font-stretch:normal;font-family:Musica;-inkscape-font-specification:Musica;stroke-width:1.00814"
               x="104.46806"
               y="81.94207">𝄞</tspan></text>
          <text
             xml:space="preserve"
             style="font-style:normal;font-variant:normal;font-weight:normal;font-stretch:normal;font-size:4.23333px;line-height:1.2;font-family:Lato;-inkscape-font-specification:Lato;text-align:center;letter-spacing:0px;word-spacing:0px;text-anchor:middle;stroke-width:0.264583"
             x="96.74427"
             y="89.133446"
             id="text5545"><tspan
               sodipodi:role="line"
               id="tspan5545"
               style="font-style:normal;font-variant:normal;font-weight:normal;font-stretch:normal;font-family:Lato;-inkscape-font-specification:Lato;stroke-width:0.264583"
               x="96.74427"
               y="89.133446">+1 s/t.</tspan></text>
        </g>
      </g>
    </g>
  </g>
</svg>
